<svg id="Layer_1" xmlns="http://www.w3.org/2000/svg" viewBox="0 0 207.9 122.7"><style>.st0{fill:#fff}.st1{fill:url(#SVGID_1_)}.st2{fill:url(#SVGID_2_)}.st3{fill:url(#SVGID_3_)}</style><title>Asset 5</title><g id="Layer_2"><g id="Layer_1-2"><linearGradient id="SVGID_1_" gradientUnits="userSpaceOnUse" x1="135.42" y1="100.335" x2="69.7" y2="100.335" gradientTransform="matrix(1 0 0 -1 0 124)"><stop offset="0" stop-color="#13d7e3"/><stop offset="1" stop-color="#0ea8ee"/></linearGradient><path class="st1" d="M140.5 28H83c-2.4 0-4.3-1.9-4.3-4.3s1.9-4.3 4.3-4.3h57.6V0H83C69.9-.3 59.1 10.1 58.8 23.2S69 47.1 82 47.3h58.6l-.1-19.3z"/><linearGradient id="SVGID_2_" gradientUnits="userSpaceOnUse" x1="68.86" y1="100.335" x2="147.51" y2="100.335" gradientTransform="matrix(1 0 0 -1 0 124)"><stop offset="0" stop-color="#13d7e3"/><stop offset="1" stop-color="#0ea8ee"/></linearGradient><path class="st2" d="M83 0C69.9-.3 59.1 10.1 58.8 23.2S69 47.1 82 47.3h1c-7.8 0-14.7-6.2-14.7-14 0-7.4 5.4-14 14.4-14h57.8V0H83z"/><linearGradient id="SVGID_3_" gradientUnits="userSpaceOnUse" x1="135.42" y1="58.38" x2="69.7" y2="58.38" gradientTransform="matrix(1 0 0 -1 0 124)"><stop offset="0" stop-color="#0ea8ee"/><stop offset="1" stop-color="#13d7e3"/></linearGradient><path class="st3" d="M62.2 55.9h78.3v19.4H62.2z"/></g></g></svg>