<?xml version="1.0" encoding="utf-8"?>
<!-- Generator: Adobe Illustrator 20.1.0, SVG Export Plug-In . SVG Version: 6.00 Build 0)  -->
<svg version="1.1" id="Layer_1" xmlns="http://www.w3.org/2000/svg" xmlns:xlink="http://www.w3.org/1999/xlink" x="0px" y="0px"
	 viewBox="0 0 248.3 28" style="enable-background:new 0 0 248.3 28;" xml:space="preserve">
<style type="text/css">
	.st0{fill:#FFFFFF;}
	.st1{fill:url(#SVGID_1_);}
	.st2{fill:url(#SVGID_2_);}
	.st3{fill:url(#SVGID_3_);}
</style>
<title>Asset 6</title>
<g>
	<rect x="233.6" y="11.5" class="st0" width="12.8" height="2.3"/>
	<rect x="149.5" y="11.5" class="st0" width="12.8" height="2.3"/>
	<path class="st0" d="M71,0v2.3h-5.9v11.5h-2.5V2.3h-5.9V0H71z"/>
	<path class="st0" d="M82.4,0l5.9,13.8h-2.7l-0.9-2.2h-9.4l-0.9,2.2h-2.7L77.6,0H82.4z M76.2,9.4h7.4l-2.9-7.1h-1.6L76.2,9.4z"/>
	<path class="st0" d="M103.1,0v2.3h-5.9v11.5h-2.6V2.3h-5.9V0H103.1z"/>
	<path class="st0" d="M108.8,0v7.1c0,3,1.4,4.8,4.5,4.8s4.5-1.9,4.5-4.8V0h2.5v7c0,4.6-2.7,7.1-7,7.1s-7-2.6-7-7.1V0H108.8z"/>
	<path class="st0" d="M197.4,0v2.3h-5.9v11.5h-2.6V2.3H183V0H197.4z"/>
	<path class="st0" d="M208.8,0l5.9,13.8H212l-1-2.2h-9.4l-1,2.2h-2.7L204,0H208.8z M202.5,9.4h7.5l-2.9-7.1h-1.6L202.5,9.4z"/>
	<path class="st0" d="M229.5,0v2.3h-5.9v11.5H221V2.3h-5.9V0H229.5z"/>
	<path class="st0" d="M135.3,5.7h-6.8c-0.9,0-1.7-0.8-1.7-1.7s0.8-1.7,1.7-1.7l0,0h8.7V0h-8.7c-2.2,0-4,1.8-4,4s1.8,4,4,4h6.8
		c0.9,0,1.7,0.8,1.7,1.7s-0.8,1.7-1.7,1.7h-10.2v2.3h10.2c2.2,0,4-1.8,4-4S137.5,5.7,135.3,5.7L135.3,5.7z"/>
	<path class="st0" d="M177.6,5.7h-6.8c-0.9,0-1.7-0.8-1.7-1.7s0.8-1.7,1.7-1.7h8.7V0h-8.7c-2.2,0-4,1.8-4,4s1.8,4,4,4h6.8
		c0.9,0,1.7,0.8,1.7,1.7s-0.8,1.7-1.7,1.7h-10.2v2.3h10.2c2.2,0,4-1.8,4-4S179.8,5.7,177.6,5.7L177.6,5.7z"/>
	<path class="st0" d="M51.2,5.7h-6.8c-0.9,0-1.7-0.8-1.7-1.7s0.8-1.7,1.7-1.7l0,0h8.7V0h-8.7c-2.2,0-4,1.8-4,4s1.8,4,4,4h6.8
		c0.9,0,1.7,0.8,1.7,1.7s-0.8,1.7-1.7,1.7H41v2.3h10.2c2.2,0,4-1.8,4-4S53.4,5.7,51.2,5.7L51.2,5.7z"/>
	<rect x="233.6" class="st0" width="12.8" height="2.3"/>
	<rect x="233.6" y="5.6" class="st0" width="12.8" height="2.3"/>
	<rect x="149.5" class="st0" width="12.8" height="2.3"/>
	<rect x="149.5" y="5.6" class="st0" width="12.8" height="2.3"/>
	<rect x="233.6" class="st0" width="2.6" height="13.8"/>
	<rect x="149.5" class="st0" width="2.6" height="13.8"/>
</g>
<g>
	
		<linearGradient id="SVGID_1_" gradientUnits="userSpaceOnUse" x1="28.411" y1="2134.6001" x2="4.6565" y2="2134.6001" gradientTransform="matrix(1 0 0 1 0 -2126)">
		<stop  offset="0" style="stop-color:#13D7E3"/>
		<stop  offset="1" style="stop-color:#0EA8EE"/>
	</linearGradient>
	<path class="st1" d="M30.2,10.2H9.5c-0.9,0-1.6-0.7-1.6-1.6S8.6,7,9.5,7h20.8V0H9.5C4.7,0,0.8,3.8,0.7,8.5s3.7,8.6,8.4,8.7
		c0.1,0,0.2,0,0.4,0h20.8L30.2,10.2z"/>
	
		<linearGradient id="SVGID_2_" gradientUnits="userSpaceOnUse" x1="4.3529" y1="2134.6001" x2="32.781" y2="2134.6001" gradientTransform="matrix(1 0 0 1 0 -2126)">
		<stop  offset="0" style="stop-color:#13D7E3"/>
		<stop  offset="1" style="stop-color:#0EA8EE"/>
	</linearGradient>
	<path class="st2" d="M9.5,0.1C4.7,0,0.8,3.8,0.7,8.5s3.7,8.6,8.4,8.7c0.1,0,0.2,0,0.4,0c-2.8,0-5.3-2.2-5.3-5.1
		c0-2.7,2-5.1,5.2-5.1h20.9V0L9.5,0.1L9.5,0.1z"/>
	
		<linearGradient id="SVGID_3_" gradientUnits="userSpaceOnUse" x1="28.411" y1="2149.8" x2="4.6565" y2="2149.8" gradientTransform="matrix(1 0 0 1 0 -2126)">
		<stop  offset="0" style="stop-color:#0EA8EE"/>
		<stop  offset="1" style="stop-color:#13D7E3"/>
	</linearGradient>
	<rect x="1.9" y="20.3" class="st3" width="28.3" height="7"/>
</g>
<g>
	<path class="st0" d="M40.7,21.1h0.8v2.8l2.8-2.8h1.1L43,23.4l2.5,3.4h-1l-2-2.9l-0.9,0.9v2h-0.8V21.1z"/>
	<path class="st0" d="M53.5,23.9c0,0.2,0,0.5-0.1,0.7s-0.1,0.5-0.2,0.7S53,25.8,52.8,26s-0.3,0.4-0.5,0.5s-0.4,0.3-0.7,0.3
		s-0.6,0.1-0.9,0.1s-0.6,0-0.9-0.1s-0.5-0.2-0.7-0.3s-0.4-0.3-0.5-0.5s-0.3-0.4-0.4-0.6S48,24.9,48,24.7s-0.1-0.5-0.1-0.7
		c0-0.4,0.1-0.9,0.2-1.2s0.3-0.7,0.5-1s0.5-0.5,0.9-0.6s0.7-0.2,1.2-0.2c0.4,0,0.8,0.1,1.2,0.2s0.6,0.4,0.9,0.6s0.4,0.6,0.5,1
		S53.5,23.5,53.5,23.9z M52.8,23.9c0-0.3,0-0.7-0.1-0.9s-0.2-0.5-0.4-0.7s-0.4-0.4-0.6-0.5s-0.5-0.2-0.9-0.2c-0.3,0-0.6,0.1-0.9,0.2
		s-0.5,0.3-0.6,0.5s-0.3,0.5-0.4,0.7s-0.1,0.6-0.1,0.9c0,0.3,0,0.7,0.1,1s0.2,0.5,0.4,0.7s0.4,0.4,0.6,0.5s0.6,0.2,0.9,0.2
		c0.3,0,0.6-0.1,0.9-0.2s0.5-0.3,0.6-0.5s0.3-0.5,0.4-0.7S52.8,24.3,52.8,23.9z"/>
	<path class="st0" d="M56.5,21.1h3.4v0.7h-2.6v5.1h-0.8V21.1z"/>
	<path class="st0" d="M62.4,28v-1.9h0.5c0.1-0.1,0.1-0.3,0.2-0.4s0.1-0.3,0.1-0.4s0.1-0.3,0.1-0.6s0.1-0.5,0.1-0.8
		c0-0.3,0.1-0.6,0.1-0.9s0-0.6,0-0.8s0-0.5,0-0.7s0-0.4,0-0.5h3.6v5.1h0.6V28h-0.7v-1.2h-4V28H62.4z M64.3,21.7c0,0.4,0,0.7,0,1.1
		s-0.1,0.7-0.1,1.1c0,0.3-0.1,0.5-0.1,0.8s-0.1,0.4-0.1,0.6s-0.1,0.3-0.1,0.4s-0.1,0.3-0.1,0.4h2.7v-4.4H64.3z"/>
	<path class="st0" d="M70.1,26.8l2.2-5.8h0.9l2.1,5.8h-0.9L73.8,25h-2.3l-0.6,1.8H70.1z M73.6,24.4l-0.9-2.6l-1,2.6H73.6z"/>
	<path class="st0" d="M82.4,21.1h1.1l1.6,4.8h0l1.6-4.8h1.1v5.7h-0.7V22h0l-1.6,4.8h-0.8L83.2,22h0v4.8h-0.7V21.1z"/>
	<path class="st0" d="M91.2,21.1h4.2v0.7H92v1.8h3.2v0.7H92v2h3.5v0.7h-4.2V21.1z"/>
	<path class="st0" d="M101.9,24.4c-0.1,0-0.2,0.1-0.3,0.1s-0.2,0.1-0.3,0.1s-0.3,0-0.4,0.1s-0.3,0-0.4,0c-0.3,0-0.5,0-0.8-0.1
		s-0.5-0.1-0.6-0.3s-0.3-0.3-0.4-0.5s-0.2-0.5-0.2-0.9v-1.9h0.8v1.8c0,0.2,0,0.4,0.1,0.6s0.2,0.3,0.3,0.4S99.9,24,100,24
		s0.4,0,0.6,0c0.1,0,0.3,0,0.4,0s0.3,0,0.4-0.1s0.2-0.1,0.3-0.1s0.2-0.1,0.2-0.1v-2.7h0.8v5.7h-0.8V24.4z"/>
	<path class="st0" d="M105.5,21.1h4.7v0.7h-2v5.1h-0.8v-5.1h-1.9V21.1z"/>
	<path class="st0" d="M113,21.1h0.8v2.4h1.5c0.3,0,0.6,0,0.9,0.1s0.5,0.2,0.6,0.3s0.3,0.3,0.4,0.5s0.1,0.4,0.1,0.7
		c0,0.3,0,0.5-0.1,0.7s-0.2,0.4-0.4,0.5s-0.3,0.3-0.6,0.3s-0.5,0.1-0.8,0.1H113V21.1z M115.4,26.1c0.2,0,0.3,0,0.4-0.1
		s0.3-0.1,0.3-0.2s0.2-0.2,0.2-0.3s0.1-0.3,0.1-0.5c0-0.2,0-0.4-0.1-0.5s-0.1-0.2-0.3-0.3s-0.2-0.1-0.4-0.2s-0.3-0.1-0.5-0.1h-1.4v2
		H115.4z M118.1,21.1h0.8v5.7h-0.8V21.1z"/>
	<path class="st0" d="M127,23.9c0,0.4,0,0.7,0.1,1c0.1,0.3,0.2,0.5,0.4,0.7c0.2,0.2,0.4,0.4,0.6,0.5c0.2,0.1,0.5,0.2,0.8,0.2
		c0.2,0,0.5,0,0.7-0.1c0.2-0.1,0.4-0.2,0.5-0.3s0.3-0.3,0.3-0.5s0.1-0.4,0.2-0.6h0.7c0,0.2-0.1,0.3-0.1,0.5
		c-0.1,0.2-0.1,0.3-0.2,0.5c-0.1,0.2-0.2,0.3-0.3,0.5s-0.3,0.3-0.5,0.4c-0.2,0.1-0.4,0.2-0.6,0.3c-0.2,0.1-0.4,0.1-0.7,0.1
		c-0.2,0-0.4,0-0.6-0.1s-0.4-0.1-0.6-0.2c-0.2-0.1-0.4-0.2-0.6-0.3c-0.2-0.1-0.3-0.3-0.5-0.5c-0.1-0.2-0.2-0.5-0.3-0.8
		c-0.1-0.3-0.1-0.6-0.1-1c0-0.4,0-0.7,0.1-1s0.2-0.6,0.3-0.8s0.3-0.4,0.5-0.6c0.2-0.2,0.4-0.3,0.6-0.4c0.2-0.1,0.4-0.2,0.6-0.2
		c0.2,0,0.4-0.1,0.6-0.1c0.3,0,0.5,0,0.7,0.1s0.4,0.1,0.6,0.2c0.2,0.1,0.3,0.2,0.4,0.3c0.1,0.1,0.2,0.3,0.3,0.4
		c0.1,0.1,0.2,0.3,0.2,0.4c0,0.1,0.1,0.3,0.1,0.4h-0.8c0-0.2-0.1-0.4-0.2-0.5c-0.1-0.1-0.2-0.3-0.3-0.4s-0.3-0.2-0.5-0.2
		c-0.2-0.1-0.4-0.1-0.5-0.1c-0.3,0-0.6,0.1-0.8,0.2s-0.4,0.3-0.6,0.5c-0.2,0.2-0.3,0.4-0.4,0.7C127,23.2,127,23.6,127,23.9z"/>
	<path class="st0" d="M133.9,21.1h4.7v0.7h-2v5.1h-0.8v-5.1h-1.9V21.1z"/>
	<path class="st0" d="M141,26.8l2.2-5.8h0.9l2.1,5.8h-0.9l-0.6-1.8h-2.3l-0.6,1.8H141z M144.5,24.4l-0.9-2.6l-1,2.6H144.5z"/>
	<path class="st0" d="M149,21.1h0.8v2.4h3.1v-2.4h0.8v5.7h-0.8v-2.7h-3.1v2.7H149V21.1z"/>
	<path class="st0" d="M162.2,23.9c0,0.2,0,0.5-0.1,0.7s-0.1,0.5-0.2,0.7s-0.2,0.4-0.4,0.6s-0.3,0.4-0.5,0.5s-0.4,0.3-0.7,0.3
		s-0.6,0.1-0.9,0.1s-0.6,0-0.9-0.1s-0.5-0.2-0.7-0.3s-0.4-0.3-0.5-0.5s-0.3-0.4-0.4-0.6s-0.2-0.5-0.2-0.7s-0.1-0.5-0.1-0.7
		c0-0.4,0.1-0.9,0.2-1.2s0.3-0.7,0.5-1s0.5-0.5,0.9-0.6s0.7-0.2,1.2-0.2c0.4,0,0.8,0.1,1.2,0.2s0.6,0.4,0.9,0.6s0.4,0.6,0.5,1
		S162.2,23.5,162.2,23.9z M161.4,23.9c0-0.3,0-0.7-0.1-0.9s-0.2-0.5-0.4-0.7s-0.4-0.4-0.6-0.5s-0.5-0.2-0.9-0.2
		c-0.3,0-0.6,0.1-0.9,0.2s-0.5,0.3-0.6,0.5s-0.3,0.5-0.4,0.7s-0.1,0.6-0.1,0.9c0,0.3,0,0.7,0.1,1s0.2,0.5,0.4,0.7s0.4,0.4,0.6,0.5
		s0.6,0.2,0.9,0.2c0.3,0,0.6-0.1,0.9-0.2s0.5-0.3,0.6-0.5s0.3-0.5,0.4-0.7S161.4,24.3,161.4,23.9z"/>
	<path class="st0" d="M165.2,21.1h2.1c0.2,0,0.4,0,0.6,0s0.3,0,0.5,0.1c0.1,0,0.3,0.1,0.4,0.2s0.2,0.2,0.3,0.3s0.2,0.2,0.2,0.4
		s0.1,0.3,0.1,0.5c0,0.1,0,0.2,0,0.3s-0.1,0.2-0.1,0.3s-0.1,0.2-0.2,0.3s-0.2,0.2-0.4,0.2c0.1,0,0.2,0.1,0.4,0.2s0.2,0.2,0.3,0.3
		s0.2,0.2,0.2,0.4s0.1,0.3,0.1,0.6c0,0.1,0,0.3,0,0.4s-0.1,0.3-0.1,0.4s-0.2,0.2-0.3,0.4s-0.2,0.2-0.4,0.3s-0.3,0.1-0.5,0.2
		s-0.4,0.1-0.7,0.1h-2.4V21.1z M167.4,23.5c0.3,0,0.5,0,0.6-0.1s0.3-0.1,0.4-0.2s0.1-0.2,0.2-0.3s0-0.2,0-0.4c0-0.1,0-0.3-0.1-0.4
		s-0.1-0.2-0.2-0.3s-0.2-0.1-0.4-0.2s-0.3-0.1-0.6-0.1H166v1.8H167.4z M167.5,26.1c0.2,0,0.5,0,0.6-0.1s0.3-0.1,0.4-0.2
		s0.2-0.2,0.2-0.3s0.1-0.3,0.1-0.4s0-0.3-0.1-0.4s-0.1-0.2-0.2-0.3s-0.2-0.2-0.4-0.2s-0.4-0.1-0.6-0.1H166v2H167.5z"/>
	<path class="st0" d="M177.2,26.8h-0.8v-2.4H175c-0.2,0-0.3,0-0.4,0s-0.2,0-0.3,0s-0.1,0-0.2,0s-0.1,0-0.2,0.1
		c-0.1,0-0.1,0.1-0.2,0.1s-0.1,0.1-0.1,0.2s-0.1,0.2-0.1,0.3s0,0.2,0,0.4l0,0.6c0,0.1,0,0.1,0,0.2s0,0.1,0,0.2s0,0.1,0,0.2
		s0,0.1-0.1,0.2h-0.9c0,0,0.1-0.1,0.1-0.1s0.1-0.1,0.1-0.2s0-0.1,0.1-0.2s0-0.2,0-0.3l0.1-0.8c0-0.1,0-0.3,0-0.4s0.1-0.2,0.1-0.3
		s0.1-0.2,0.2-0.3s0.2-0.2,0.4-0.2c-0.1,0-0.2-0.1-0.3-0.1s-0.2-0.1-0.3-0.2s-0.2-0.2-0.3-0.4s-0.1-0.4-0.1-0.6c0-0.2,0-0.3,0.1-0.5
		s0.1-0.3,0.2-0.4s0.1-0.2,0.2-0.3s0.2-0.1,0.3-0.2c0.1-0.1,0.2-0.1,0.3-0.1s0.3-0.1,0.4-0.1s0.3,0,0.4,0s0.2,0,0.3,0h2.4V26.8z
		 M176.4,21.7h-1.8c-0.1,0-0.1,0-0.2,0s-0.1,0-0.2,0s-0.1,0-0.2,0s-0.1,0-0.2,0.1c-0.1,0-0.1,0.1-0.2,0.2s-0.1,0.1-0.1,0.2
		s-0.1,0.2-0.1,0.2s0,0.2,0,0.2c0,0.1,0,0.1,0,0.2s0,0.1,0.1,0.2s0.1,0.1,0.1,0.2s0.1,0.1,0.2,0.2c0.1,0.1,0.1,0.1,0.2,0.1
		s0.1,0,0.2,0.1s0.2,0,0.3,0s0.2,0,0.3,0h1.7V21.7z"/>
	<path class="st0" d="M180,21.1h4.7v0.7h-2v5.1H182v-5.1H180V21.1z"/>
	<path class="st0" d="M188,23.9c0,0.4,0,0.7,0.1,1c0.1,0.3,0.2,0.5,0.4,0.7c0.2,0.2,0.4,0.4,0.6,0.5c0.2,0.1,0.5,0.2,0.8,0.2
		c0.2,0,0.5,0,0.7-0.1c0.2-0.1,0.4-0.2,0.5-0.3s0.3-0.3,0.3-0.5s0.1-0.4,0.2-0.6h0.7c0,0.2-0.1,0.3-0.1,0.5
		c-0.1,0.2-0.1,0.3-0.2,0.5c-0.1,0.2-0.2,0.3-0.3,0.5s-0.3,0.3-0.5,0.4c-0.2,0.1-0.4,0.2-0.6,0.3c-0.2,0.1-0.4,0.1-0.7,0.1
		c-0.2,0-0.4,0-0.6-0.1s-0.4-0.1-0.6-0.2c-0.2-0.1-0.4-0.2-0.6-0.3c-0.2-0.1-0.3-0.3-0.5-0.5c-0.1-0.2-0.2-0.5-0.3-0.8
		c-0.1-0.3-0.1-0.6-0.1-1c0-0.4,0-0.7,0.1-1s0.2-0.6,0.3-0.8s0.3-0.4,0.5-0.6c0.2-0.2,0.4-0.3,0.6-0.4c0.2-0.1,0.4-0.2,0.6-0.2
		c0.2,0,0.4-0.1,0.6-0.1c0.3,0,0.5,0,0.7,0.1s0.4,0.1,0.6,0.2c0.2,0.1,0.3,0.2,0.4,0.3c0.1,0.1,0.2,0.3,0.3,0.4
		c0.1,0.1,0.2,0.3,0.2,0.4c0,0.1,0.1,0.3,0.1,0.4h-0.8c0-0.2-0.1-0.4-0.2-0.5c-0.1-0.1-0.2-0.3-0.3-0.4s-0.3-0.2-0.5-0.2
		c-0.2-0.1-0.4-0.1-0.5-0.1c-0.3,0-0.6,0.1-0.8,0.2s-0.4,0.3-0.6,0.5c-0.2,0.2-0.3,0.4-0.4,0.7C188,23.2,188,23.6,188,23.9z"/>
	<path class="st0" d="M199.9,26.8h-0.8v-2.4h-1.4c-0.2,0-0.3,0-0.4,0c-0.1,0-0.2,0-0.3,0c-0.1,0-0.1,0-0.2,0c-0.1,0-0.1,0-0.2,0.1
		c-0.1,0-0.1,0.1-0.2,0.1c0,0-0.1,0.1-0.1,0.2c0,0.1-0.1,0.2-0.1,0.3c0,0.1,0,0.2,0,0.4l0,0.6c0,0.1,0,0.1,0,0.2s0,0.1,0,0.2
		c0,0.1,0,0.1,0,0.2c0,0.1,0,0.1-0.1,0.2h-0.9c0,0,0.1-0.1,0.1-0.1c0,0,0.1-0.1,0.1-0.2s0-0.1,0.1-0.2c0-0.1,0-0.2,0-0.3l0.1-0.8
		c0-0.1,0-0.3,0-0.4c0-0.1,0.1-0.2,0.1-0.3s0.1-0.2,0.2-0.3s0.2-0.2,0.4-0.2c-0.1,0-0.2-0.1-0.3-0.1c-0.1-0.1-0.2-0.1-0.3-0.2
		c-0.1-0.1-0.2-0.2-0.3-0.4c-0.1-0.2-0.1-0.4-0.1-0.6c0-0.2,0-0.3,0.1-0.5c0-0.1,0.1-0.3,0.2-0.4c0.1-0.1,0.1-0.2,0.2-0.3
		c0.1-0.1,0.2-0.1,0.3-0.2c0.1-0.1,0.2-0.1,0.3-0.1c0.1,0,0.3-0.1,0.4-0.1c0.1,0,0.3,0,0.4,0s0.2,0,0.3,0h2.4V26.8z M199.2,21.7
		h-1.8c-0.1,0-0.1,0-0.2,0s-0.1,0-0.2,0s-0.1,0-0.2,0c-0.1,0-0.1,0-0.2,0.1c-0.1,0-0.1,0.1-0.2,0.2s-0.1,0.1-0.1,0.2
		s-0.1,0.2-0.1,0.2s0,0.2,0,0.2c0,0.1,0,0.1,0,0.2s0,0.1,0.1,0.2c0,0.1,0.1,0.1,0.1,0.2s0.1,0.1,0.2,0.2c0.1,0.1,0.1,0.1,0.2,0.1
		c0.1,0,0.1,0,0.2,0.1s0.2,0,0.3,0s0.2,0,0.3,0h1.7V21.7z"/>
	<path class="st0" d="M207.1,28v-1.9h0.5c0.1-0.1,0.1-0.3,0.2-0.4s0.1-0.3,0.1-0.4s0.1-0.3,0.1-0.6s0.1-0.5,0.1-0.8
		c0-0.3,0.1-0.6,0.1-0.9s0-0.6,0-0.8s0-0.5,0-0.7s0-0.4,0-0.5h3.6v5.1h0.6V28h-0.7v-1.2h-4V28H207.1z M209,21.7c0,0.4,0,0.7,0,1.1
		s-0.1,0.7-0.1,1.1c0,0.3-0.1,0.5-0.1,0.8s-0.1,0.4-0.1,0.6s-0.1,0.3-0.1,0.4s-0.1,0.3-0.1,0.4h2.7v-4.4H209z"/>
	<path class="st0" d="M220.6,23.9c0,0.2,0,0.5-0.1,0.7s-0.1,0.5-0.2,0.7s-0.2,0.4-0.4,0.6s-0.3,0.4-0.5,0.5s-0.4,0.3-0.7,0.3
		s-0.6,0.1-0.9,0.1s-0.6,0-0.9-0.1s-0.5-0.2-0.7-0.3s-0.4-0.3-0.5-0.5s-0.3-0.4-0.4-0.6s-0.2-0.5-0.2-0.7s-0.1-0.5-0.1-0.7
		c0-0.4,0.1-0.9,0.2-1.2s0.3-0.7,0.5-1s0.5-0.5,0.9-0.6s0.7-0.2,1.2-0.2c0.4,0,0.8,0.1,1.2,0.2s0.6,0.4,0.9,0.6s0.4,0.6,0.5,1
		S220.6,23.5,220.6,23.9z M219.9,23.9c0-0.3,0-0.7-0.1-0.9s-0.2-0.5-0.4-0.7s-0.4-0.4-0.6-0.5s-0.5-0.2-0.9-0.2
		c-0.3,0-0.6,0.1-0.9,0.2s-0.5,0.3-0.6,0.5s-0.3,0.5-0.4,0.7s-0.1,0.6-0.1,0.9c0,0.3,0,0.7,0.1,1s0.2,0.5,0.4,0.7s0.4,0.4,0.6,0.5
		s0.6,0.2,0.9,0.2c0.3,0,0.6-0.1,0.9-0.2s0.5-0.3,0.6-0.5s0.3-0.5,0.4-0.7S219.9,24.3,219.9,23.9z"/>
	<path class="st0" d="M223.6,21.1h1.1l1.6,4.8h0l1.6-4.8h1.1v5.7h-0.7V22h0l-1.6,4.8H226l-1.6-4.8h0v4.8h-0.7V21.1z"/>
	<path class="st0" d="M237.7,23.9c0,0.2,0,0.5-0.1,0.7s-0.1,0.5-0.2,0.7s-0.2,0.4-0.4,0.6s-0.3,0.4-0.5,0.5s-0.4,0.3-0.7,0.3
		s-0.6,0.1-0.9,0.1s-0.6,0-0.9-0.1s-0.5-0.2-0.7-0.3s-0.4-0.3-0.5-0.5s-0.3-0.4-0.4-0.6s-0.2-0.5-0.2-0.7s-0.1-0.5-0.1-0.7
		c0-0.4,0.1-0.9,0.2-1.2s0.3-0.7,0.5-1s0.5-0.5,0.9-0.6s0.7-0.2,1.2-0.2c0.4,0,0.8,0.1,1.2,0.2s0.6,0.4,0.9,0.6s0.4,0.6,0.5,1
		S237.7,23.5,237.7,23.9z M237,23.9c0-0.3,0-0.7-0.1-0.9s-0.2-0.5-0.4-0.7s-0.4-0.4-0.6-0.5s-0.5-0.2-0.9-0.2
		c-0.3,0-0.6,0.1-0.9,0.2s-0.5,0.3-0.6,0.5s-0.3,0.5-0.4,0.7s-0.1,0.6-0.1,0.9c0,0.3,0,0.7,0.1,1s0.2,0.5,0.4,0.7s0.4,0.4,0.6,0.5
		s0.6,0.2,0.9,0.2c0.3,0,0.6-0.1,0.9-0.2s0.5-0.3,0.6-0.5s0.3-0.5,0.4-0.7S237,24.3,237,23.9z"/>
	<path class="st0" d="M240.8,21.1h1.1l1.6,4.8h0l1.6-4.8h1.1v5.7h-0.7V22h0l-1.6,4.8h-0.8l-1.6-4.8h0v4.8h-0.7V21.1z"/>
</g>
</svg>
