<svg fill="#1a48d2" xmlns="http://www.w3.org/2000/svg" viewBox="0 0 343.4 343.4"><path d="M286.4 0H101.6c-10.5 0-19 8.5-19 19v14.2H57c-10.5 0-19 8.5-19 19v272.3c0 10.5 8.5 19 19 19h184.8c10.5 0 19-8.5 19-19v-14.2h25.6c10.5 0 19-8.5 19-19V19c0-10.5-8.6-19-19-19zm11.9 291.2c0 6.5-5.3 11.9-11.9 11.9h-25.6v-251c0-10.5-8.5-19-19-19h-7.3c-2 0-3.6 1.6-3.6 3.6s1.6 3.6 3.6 3.6h7.3c6.5 0 11.9 5.3 11.9 11.8v272.3c0 6.5-5.3 11.8-11.9 11.8H57c-6.5 0-11.9-5.3-11.9-11.8V52.1c0-6.5 5.3-11.8 11.9-11.8h140.7c2 0 3.6-1.6 3.6-3.6s-1.6-3.6-3.6-3.6h-108V19c0-6.5 5.3-11.8 11.8-11.8h184.8c6.5 0 11.9 5.3 11.9 11.8v272.2z"/><path d="M221.5 221.5H96.1c-2 0-3.6 1.6-3.6 3.6s1.6 3.6 3.6 3.6h125.4c2 0 3.6-1.6 3.6-3.6s-1.6-3.6-3.6-3.6zm0 19.9H76.9c-2 0-3.6 1.6-3.6 3.6s1.6 3.6 3.6 3.6h144.6c2 0 3.6-1.6 3.6-3.6s-1.6-3.6-3.6-3.6zm0 20H76.9c-2 0-3.6 1.6-3.6 3.6s1.6 3.6 3.6 3.6h144.6c2 0 3.6-1.6 3.6-3.6 0-2.1-1.6-3.6-3.6-3.6zm0 19.9H76.9c-2 0-3.6 1.6-3.6 3.6s1.6 3.6 3.6 3.6h144.6c2 0 3.6-1.6 3.6-3.6s-1.6-3.6-3.6-3.6zm0 19.9H76.9c-2 0-3.6 1.6-3.6 3.6s1.6 3.6 3.6 3.6h144.6c2 0 3.6-1.6 3.6-3.6s-1.6-3.6-3.6-3.6zm-52.7-188.7c-1.8-1.9-3.8-3.6-6.1-4.9-3.6-2.1-7.8-3.2-12.3-3.2-6.7 0-12.9 2.6-17.5 7.2-4.9 4.7-7.6 11.1-7.6 17.9 0 4.5 1.2 8.8 3.3 12.4 4.3 7.6 12.5 12.7 21.8 12.7 2.9 0 5.8-.5 8.4-1.5.1 0 .1 0 .2-.1 9.9-3.6 16.4-13.1 16.4-23.6 0-6.5-2.5-12.4-6.6-16.9zm-12.2 33.9c-2 .7-4.1 1.1-6.2 1.1-2.8 0-5.4-.6-7.8-1.8-6-2.9-10.2-9.1-10.2-16.2 0-4.9 1.9-9.4 5.4-12.8 3.3-3.3 7.8-5.2 12.6-5.2h.6c9.6.3 17.4 8.2 17.4 18-.1 7.5-4.8 14.3-11.8 16.9zm63.3-113.2h-7.4c-2 0-3.6 1.6-3.6 3.6s1.6 3.6 3.6 3.6h7.4c2 0 3.6-1.6 3.6-3.6s-1.6-3.6-3.6-3.6z"/></svg>