<svg fill="#1a48d2" xmlns="http://www.w3.org/2000/svg" viewBox="0 0 475 475"><path d="M320 17.5H45c-24.8 0-45 20.2-45 45v250c0 1.3.5 2.6 1.5 3.5l50 50c.9.9 2.2 1.5 3.5 1.5h170v-10H60v-45c0-2.8-2.2-5-5-5H10v-205h80v20h10v-20h120v20h10v-20h80v105h10v-105h10v105h10v-105h10v105h10v-150c0-22.1-17.9-40-40-40zm-270 300v32.9l-32.9-32.9H50zm260-225h-80v-20h-10v20H100v-20H90v20H10v-30c0-19.3 15.7-35 35-35h265v65zm40 0h-30v-65c16.5 0 30 13.5 30 30v35z"/><path d="M90 52.5h10v10H90zm130 0h10v10h-10zm-85 250h10v10h-10zm20 0h10v10h-10zm20 0h10v10h-10zm185-84.9c-1.7-.1-3.3-.1-5-.1-66.2 0-120 53.8-120 120 0 10.4 1.3 20.4 3.8 30 13.4 51.7 60.4 90 116.2 90 66.2 0 120-53.8 120-120 0-64.5-51.1-117.2-115-119.9zm-5 229.9c-60.7 0-110-49.3-110-110s49.3-110 110-110 110 49.3 110 110-49.3 110-110 110z"/><path d="M355 242.5c-52.4 0-95 42.6-95 95s42.6 95 95 95 95-42.6 95-95-42.6-95-95-95zm13 87.5c2.7 4.6 2.7 10.4 0 15s-7.6 7.5-13 7.5-10.3-2.9-13-7.5c-2.7-4.6-2.7-10.4 0-15s7.6-7.5 13-7.5 10.3 2.9 13 7.5zm-18-77.2v60.3c-6.9 1.4-13 5.7-16.6 11.9-1.4 2.4-2.3 4.9-2.8 7.5h-60.3c2.5-42.9 36.8-77.2 79.7-79.7zm5 169.7c-45.2 0-82.1-35.5-84.7-80h60.3c.5 2.6 1.4 5.1 2.8 7.5 4.5 7.7 12.7 12.5 21.6 12.5s17.2-4.8 21.6-12.5 4.5-17.3 0-25c-3.6-6.2-9.7-10.5-16.6-11.9v-60.3c44.5 2.6 80 39.6 80 84.7 0 46.9-38.1 85-85 85z"/></svg>