<svg fill="#1a48d2" xmlns="http://www.w3.org/2000/svg" viewBox="0 0 450 450"><path d="M170 302.501v-40c0-2.766-2.238-5-5-5h-40v105h10v-95h25v30h-20a4.997 4.997 0 0 0-4.617 3.086 4.993 4.993 0 0 0 1.082 5.449L160 329.571v32.93h10v-35a4.993 4.993 0 0 0-1.465-3.535l-16.465-16.465H165c2.762 0 5-2.234 5-5zm50-35v-10h-40v105h40v-10h-30v-40h30v-10h-30v-35zm55-10v95h-10v-90c0-2.766-2.234-5-5-5h-30v105h10v-95h15v90c0 2.766 2.234 5 5 5h20c2.766 0 5-2.234 5-5v-100h-10zm20 0v10h15v95h10v-95h15v-10z"/><path d="M447.531 147.29l-220-129.102a4.998 4.998 0 0 0-5.063 0l-220 129.09A4.998 4.998 0 0 0 0 151.591v40.91a5 5 0 0 0 5 5h30v225H5v10h100v-10H75v-225h75v20H90a5 5 0 0 0-5 5v175c0 2.766 2.238 5 5 5h270c2.766 0 5-2.234 5-5v-175c0-2.762-2.234-5-5-5h-60v-20h75v225h-30v10h100v-10h-30v-225h30c2.766 0 5-2.238 5-5v-40.898a4.997 4.997 0 0 0-2.469-4.313zM65 422.501H45v-225h20v225zm290-195v165H95v-165h260zm-195-10v-20h130v20H160zm245 205h-20v-225h20v225zm35-235H10v-33.047L225 28.298l215 126.168v33.035z"/><path d="M25 167.501h400v10H25zm45-20h315v10H70zm-20 0h10v10H50zm345 0h10v10h-10zM227.415 48.123a4.976 4.976 0 0 0-4.895.038l-140 80 4.961 8.68 137.563-78.605 142.543 78.645 4.828-8.758-145-80zM115 422.501h220v10H115z"/><path d="M220 102.501h10v10h-10zm20 0h10v10h-10zm-40 0h10v10h-10z"/></svg>