<svg fill="#1a48d2" xmlns="http://www.w3.org/2000/svg" viewBox="0 0 460.001 460.001"><path d="M425 204.283c-19.297 0-35 15.703-35 35v95c0 17.133 12.266 30 29.172 35H420v50h-30v-35h15v-10h-15v-20h-10v20h-10v-20h-10v20h-10V204.689l16.875 13.5 6.25-7.813L350 191.88v-87.598h10v-10h-65v10h10v50.477l-75-61.961-62.23 51.406-55.891 46.172-25 20 6.242 7.813L110 204.686v169.598h-10v-20H90v20H80v-20H70v20H55v10h15v35H40v-55h.418l.41-.293C57.73 361.143 70 346.416 70 329.283v-35c0-19.297-15.699-35-35-35s-35 15.703-35 35v35c0 17.133 12.27 30 29.172 35H30v55H20v10h90v10h240v-10h90v-10h-10v-50h.422l.406-.293C447.734 366.143 460 351.416 460 334.283v-95c0-19.297-15.703-35-35-35zM60 329.284c0 11.945-8.367 22.066-20 24.429v-27.359l20-20v22.93zm-30-35.001v17.93l-11.465-11.465-7.07 7.07L30 326.354v27.359c-11.633-2.363-20-12.484-20-24.43v-35c0-13.781 11.215-25 25-25s25 11.219 25 25v10l-6.035-6.035L40 312.213v-17.93H30zm60 125H80v-35h10v35zm20 0h-10v-35h10v35zm175 10H175v-10h110v10zm-75-20v-90h45v90h-45zm130 20h-45v-15c0-2.762-2.234-5-5-5h-25v-100h-65v100h-30a5 5 0 0 0-5 5v15h-45V196.638l110-90.871 110 90.871v232.645zm0-245.614l-25-20.652v-58.734h25v79.386zm20 235.614h-10v-35h10v35zm20 0h-10v-35h10v35zm70-84.999c0 11.945-8.367 22.066-20 24.429v-32.359l20-20v27.93zm0-30l-6.035-6.035L430 312.213v-25.859l20-20v37.93zm0-40.001l-6.035-6.035L430 272.213v-22.93h-10v22.93l-11.465-11.465-7.07 7.07L420 286.354v25.859l-11.465-11.465-7.07 7.07L420 326.354v32.359c-11.633-2.363-20-12.484-20-24.43v-95c0-13.781 11.215-25 25-25s25 11.219 25 25v25zM430.317 19.919a29.13 29.13 0 0 0-3.082.16C421.911 8.484 410.102.72 397.13.72c-15.723 0-29.102 11.117-32.344 26.07C350.984 27.561 340 39.028 340 53.018c0 14.484 11.781 26.265 26.266 26.265h64.051c16.367 0 29.684-13.313 29.684-29.68s-13.316-29.684-29.684-29.684zm0 49.364h-64.051c-8.969 0-16.266-7.293-16.266-16.266 0-8.969 7.297-16.266 16.266-16.266.734 0 1.461.051 2.18.145l5.285.691.355-5.316c.797-12.082 10.922-21.551 23.043-21.551 10.113 0 19.207 6.762 22.129 16.449l1.391 4.629 4.672-1.234a19.417 19.417 0 0 1 4.996-.645c10.855 0 19.684 8.828 19.684 19.684 0 10.852-8.828 19.68-19.684 19.68zM81.465 105.747L70 117.213l-11.465-11.465-7.07 7.07 15 15c.976.977 2.254 1.465 3.535 1.465s2.559-.488 3.535-1.465l15-15-7.07-7.071zm90-90L160 27.213l-11.465-11.465-7.07 7.07 15 15c.976.977 2.254 1.465 3.535 1.465s2.559-.488 3.535-1.465l15-15-7.07-7.071zM450 419.281h10v10h-10zm-450 0h10v10H0z"/><path d="M230 164.283h-30v65h60v-65h-30zm20 55h-40v-45h40v45zm-30 139.998h10v10h-10zm-15-115h10v10h-10zm25 .002h-5v10h10v-10zm15-.002h10v10h-10zm-50 205h75v10h-75zm-20 0h10v10h-10zm105 0h10v10h-10z"/></svg>