<svg fill="#1a48d2" xmlns="http://www.w3.org/2000/svg" viewBox="0 0 460.001 460.001"><path d="M400.001 7.501h-70v50h70l-25-25 25-25zm-24.141 40h-35.859v-30h35.859l-7.93 6.68-7.07 6.445 7.07 8.008 7.93 8.867zM352.935 208.45l-145-105a5.006 5.006 0 0 0-5.867 0l-145 105a4.995 4.995 0 0 0-2.067 4.051v205c0 19.297 15.703 35 35 35h230c19.297 0 35-15.703 35-35v-205a4.997 4.997 0 0 0-2.066-4.051zm-7.934 209.051c0 13.785-11.215 25-25 25h-230c-13.785 0-25-11.215-25-25V215.056l140-101.379 140 101.379v202.445z"/><path d="M409.962 186.872a5.007 5.007 0 0 0-1.961-3.371l-83-62.246V7.501h-10v106.254l-107-80.254a5.004 5.004 0 0 0-6 0l-200 150a5.01 5.01 0 0 0-1.961 3.371 4.992 4.992 0 0 0 1.055 3.75l20 25a5.004 5.004 0 0 0 6.906.879l177-132.75 177 132.75c.898.672 1.949 1 2.996 1a4.99 4.99 0 0 0 3.91-1.879l20-25a4.992 4.992 0 0 0 1.055-3.75zm-25.84 18.723L208.001 73.501c-.891-.664-1.945-1-3-1s-2.109.336-3 1L25.88 205.595l-13.75-17.188L205.001 43.751l192.871 144.656-13.75 17.188zm55.879 206.906v-10h-20v-60h-10v105h30v-10h-20v-25zm-20-159.707v-20.293h-10v20.293c-22.465 2.5-40 21.586-40 44.707 0 24.813 20.188 45 45 45s45-20.187 45-45c0-23.121-17.535-42.207-40-44.707zm-5 79.707c-19.297 0-35-15.703-35-35s15.703-35 35-35 35 15.703 35 35-15.703 35-35 35z"/><path d="M415.001 272.501c-13.785 0-25 11.215-25 25s11.215 25 25 25 25-11.215 25-25-11.215-25-25-25zm0 40c-8.273 0-15-6.727-15-15s6.727-15 15-15 15 6.727 15 15-6.727 15-15 15zm-114.328-75.238c-19.664-34.074-56.328-55.238-95.672-55.238s-76.008 21.164-95.672 55.238c-19.676 34.07-19.676 76.402 0 110.473 19.664 34.07 56.328 55.238 95.672 55.238s76.008-21.168 95.672-55.238c19.676-34.07 19.676-76.402 0-110.473zm-8.66 105.473c-17.887 30.984-51.227 50.238-87.012 50.238-35.785 0-69.125-19.254-87.012-50.238-17.895-30.984-17.895-69.484 0-100.473 17.887-30.988 51.227-50.238 87.012-50.238s69.125 19.249 87.012 50.238c17.895 30.988 17.895 69.488 0 100.473z"/><path d="M260.001 272.501v-23.75c0-12.391-10.156-26.25-23.75-26.25h-11.25v-15h-10v15h-20v-15h-10v15h-11.25c-13.594 0-23.75 13.859-23.75 26.25v25c0 13.094 10.656 23.75 23.75 23.75h11.25v55h-11.25c-7.617 0-13.75-8.887-13.75-16.25v-23.75h-10v23.75c0 12.391 10.156 26.25 23.75 26.25h11.25v15h10v-15h20v15h10v-15h11.25c13.594 0 23.75-13.859 23.75-26.25v-25c0-13.094-10.656-23.75-23.75-23.75h-11.25v-55h11.25c7.617 0 13.75 8.887 13.75 16.25v23.75h10zm-75 15h-11.25c-7.582 0-13.75-6.168-13.75-13.75v-25c0-7.363 6.133-16.25 13.75-16.25h11.25v55zm30 65h-20v-55h20v55zm0-65h-20v-55h20v55zm21.25 10c7.582 0 13.75 6.168 13.75 13.75v25c0 7.363-6.133 16.25-13.75 16.25h-11.25v-55h11.25zm-31.25 125h-85v10h170v-10zm115 0h10v10h-10zm-20 0h10v10h-10zm-220 0h10v10h-10zm20 0h10v10h-10zm105-290h-5v10h10v-10zm0 20h-5v10h10v-10z"/></svg>