<svg fill="#1a48d2" xmlns="http://www.w3.org/2000/svg" viewBox="0 0 450.7 450.7"><path d="M245.4 112.9h-40c-2.8 0-5 2.2-5 5v40c0 2.8 2.2 5 5 5h40c2.8 0 5-2.2 5-5v-40c0-2.8-2.3-5-5-5zm-5 40h-30v-30h30v30zm-20-145h10v20h-10zm46.835 24.115l4.452-19.498 9.749 2.226-4.452 19.498zm44.702 14.451l8.68-18.018 9.009 4.34-8.68 18.018zm40.467 24.143l12.472-15.636 7.818 6.236-12.472 15.636zm34.083 32.4l15.636-12.472 6.236 7.818-15.636 12.472zm25.835 39.246l18.018-8.68 4.34 9.009-18.018 8.68zm16.598 44.002l19.498-4.45 2.225 9.75-19.498 4.45zM.001 191.522l2.227-9.75 19.498 4.455-2.227 9.749zm15.935-48.919l4.338-9.01 18.02 8.676-4.338 9.01zM42.457 98.34l6.234-7.82 15.638 12.468-6.234 7.82zm35.629-37.159l7.82-6.235 12.47 15.638-7.82 6.235zm42.956-28.42l9.01-4.339 8.678 18.02-9.01 4.339zm48.26-17.998l9.75-2.225 4.45 19.498-9.75 2.225zM40.4 337.9h10v10h-10z"/><path d="M420.4 217.9c-11 0-20 9-20 20v40h-12.1c-9.9 0-17.9 8-17.9 17.9v29.8l-10 8.9V163.1l32.5 19.1 5.1-8.6-170-100c-1.6-.9-3.5-.9-5.1 0l-170 100 5.1 8.6 32.5-19.1v171.4l-10-8.9v-29.8c0-9.9-8-17.9-17.9-17.9H50.4v-40c0-11-9-20-20-20s-20 9-20 20v102.6c0 9.3 3.6 18.1 10.3 24.8L65.4 410v32.9h10v-35c0-1.3-.5-2.6-1.5-3.5l-46.2-46.2c-4.7-4.7-7.3-11-7.3-17.7V237.9c0-5.5 4.5-10 10-10s10 4.5 10 10v90h10v-40h12.1c4.4 0 7.9 3.6 7.9 7.9v32.1c0 1.4.6 2.8 1.7 3.7l34.9 31.1c5.3 4.7 8.4 11.6 8.4 18.7v61.5h10v-55h59.9l37.4 24.2c.8.5 1.8.8 2.7.8s1.9-.3 2.7-.8l37.4-24.2h59.9v55h10v-61.5c0-7.1 3.1-14 8.4-18.7l34.9-31.1c1.1-.9 1.7-2.3 1.7-3.7v-32.1c0-4.4 3.6-7.9 7.9-7.9h12.1v40h10v-90c0-5.5 4.5-10 10-10s10 4.5 10 10v102.6c0 6.7-2.6 13-7.3 17.7l-46.2 46.2c-.9.9-1.5 2.2-1.5 3.5v35h10V410l44.7-44.7c6.6-6.6 10.3-15.4 10.3-24.8V237.9c0-11.1-9-20-20-20zm-195 184l-45.7-29.6c-21.4-13.9-34.3-37.4-34.3-63v-68.6l80-47.1 80 47.1v68.6c0 25.5-12.8 49.1-34.3 63l-45.7 29.6zm125-58.5l-13.2 11.8c-6.6 5.9-10.7 14-11.6 22.7h-44.9c21.8-16 34.7-41.2 34.7-68.5v-71.5c0-1.8-.9-3.4-2.5-4.3l-85-50c-1.6-.9-3.5-.9-5.1 0l-85 50c-1.5.9-2.5 2.5-2.5 4.3v71.5c0 27.3 12.9 52.5 34.7 68.5h-44.9c-.9-8.7-5-16.8-11.6-22.7l-13.2-11.8V157.9h-1.1l126.1-74.2 68.1 40.1 56.9 34.1v185.5z"/><path d="M400.4 337.9h10v10h-10z"/></svg>