<svg fill="#1a48d2" xmlns="http://www.w3.org/2000/svg" viewBox="0 0 460 460"><path d="M330 152.5h80v10h-80zm-50 20h130v10H280zm0 20h130v10H280zm0 20h130v10H280zm0 20h75v10h-75zm85 0h10v10h-10zm-40 40h85v10h-85zm-45 20h130v10H280zm0 20h130v10H280zm0 20h130v10H280zm0 20h80v10h-80zm90 0h10v10h-10zm-20-300h10v10h-10zm-45 20h10v10h-10zm90-40h10v10h-10zm-140 240h-80c-2.762 0-5 2.234-5 5v30h-65c-2.762 0-5 2.234-5 5v45c0 2.766 2.238 5 5 5h150c2.766 0 5-2.234 5-5v-80c0-2.766-2.234-5-5-5zm-85 80h-60v-35h60v35zm80 0h-30v-20h-10v20h-30v-70h70v70z"/><path d="M230 292.5h10v10h-10zm0 20h10v10h-10zm-20-20h10v10h-10zm-20 0h10v10h-10zm20 20h10v10h-10zm-20 0h10v10h-10zm-40 15h10v10h-10zm-30 0h10v10h-10zm-50 110h390v10H70z"/><path d="M455 102.5h-30v-85c0-2.762-2.234-5-5-5h-45c-2.766 0-5 2.238-5 5v15h-40c-2.766 0-5 2.238-5 5v15h-40c-2.766 0-5 2.238-5 5v45H25c-13.785 0-25 11.215-25 25v285c0 19.297 15.699 35 35 35h20c2.762 0 5-2.234 5-5v-35h390v10H70v10h385c2.766 0 5-2.234 5-5v-315c0-2.762-2.234-5-5-5zm-75-65v-15h35v80h-35v-65zm-45 20v-15h35v60h-35v-45zm-45 5h35v40h-35v-40zm-240 375H35c-13.785 0-25-11.215-25-25v-5h40v30zm0-40H10v-270c0-8.273 6.727-15 15-15h25v70H35a5 5 0 0 0-5 5v20a5 5 0 0 0 5 5h15v30H35c-2.762 0-5 2.234-5 5v20c0 2.766 2.238 5 5 5h15v30H35c-2.762 0-5 2.234-5 5v20c0 2.766 2.238 5 5 5h15v65zm20-205v10H40v-10h30zm0 60v10H40v-10h30zm-30 70v-10h30v10H40zm410 70v5H60v-65h15c2.762 0 5-2.234 5-5v-20c0-2.766-2.238-5-5-5H60v-30h15c2.762 0 5-2.234 5-5v-20c0-2.766-2.238-5-5-5H60v-30h15a5 5 0 0 0 5-5v-20a5 5 0 0 0-5-5H60v-70h390v280z"/><path d="M244.999 232.5v-30H245v-30h-10v60h-25v-50a5.014 5.014 0 0 0-2.352-4.242l-40-25a5.017 5.017 0 0 0-5.297 0l-40 25a5.015 5.015 0 0 0-2.352 4.242v50h-20v10h160v-10h-15zm-44.999 0h-25v-25h-20v25h-25v-35h70v35zm0-45h-70v-2.23l35-21.875 35 21.875v2.23z"/></svg>