<svg fill="#1a48d2" xmlns="http://www.w3.org/2000/svg" viewBox="0 0 479.49 479.49"><path d="M448.261 263.588L338.655 153.984a4.998 4.998 0 0 0-7.07 0l-35.355 35.355a4.995 4.995 0 0 0 0 7.07l1.039 1.039-4.156 4.156c-1.098-1.074-2.211-2.156-3.32-3.242l-4.672-4.559c-8.93-8.715-23.379-8.633-32.203.199l-31.457 31.461a75977.86 75977.86 0 0 1-28.684-28.574l.48-.479a4.993 4.993 0 0 0 0-7.07l-35.355-35.355c-1.875-1.875-5.195-1.875-7.07 0L41.229 263.59a4.998 4.998 0 0 0 0 7.07l35.352 35.355a4.995 4.995 0 0 0 7.07 0l.508-.508 1.715 1.738c8.02 8.16 21.02 21.371 42.977 43.523l-1.992 1.992c-9.516 9.52-9.531 25.023-.035 34.555 4.695 4.703 11.223 7.297 17.918 7.18-.152 6.559 2.324 13.055 7.082 17.828 4.688 4.707 11.262 7.352 17.918 7.195-.152 6.563 2.324 13.078 7.082 17.852 4.695 4.711 11.297 7.355 17.918 7.242-.152 6.563 2.324 13.172 7.082 17.945 4.547 4.563 10.852 7.441 17.297 7.441h.023c6.531 0 12.672-2.793 17.285-7.41l1.91-1.91c3.797 3.801 7.66 7.664 11.645 11.648 4.621 4.621 10.762 7.164 17.293 7.164 6.516 0 12.645-2.527 17.258-7.129 4.629-4.613 7.184-10.758 7.188-17.301 0-.199-.004-.402-.008-.609 6.629.156 13.078-2.367 17.82-7.09 4.629-4.613 7.184-10.758 7.188-17.301 0-.199-.004-.402-.008-.609a24.237 24.237 0 0 0 17.82-7.09c4.629-4.613 7.184-10.758 7.188-17.301 0-.199-.004-.402-.008-.609.211.012.414.012.617.012 6.5 0 12.609-2.523 17.203-7.102a24.283 24.283 0 0 0 7.188-17.297c.008-6.535-2.531-12.684-7.168-17.313l-6.285-6.25 51.531-51.527 1.035 1.039a4.98 4.98 0 0 0 3.535 1.465 4.985 4.985 0 0 0 3.535-1.465l35.355-35.355a5 5 0 0 0 0-7.07zM80.116 295.41l-28.281-28.285L154.362 164.59l28.289 28.285L80.116 295.41zm68.203 88.383c-5.324 1.637-10.738.125-14.391-3.543-5.613-5.629-5.586-14.793.039-20.422l1.945-1.938c5.789 5.836 12.133 12.223 19.09 19.219l-6.683 6.684zm25.004 24.996c-5.328 1.641-10.758.133-14.414-3.539-3.75-3.762-5.055-9.316-3.508-14.395l6.652-6.656c5.582 5.609 11.559 11.609 17.891 17.969l-6.621 6.621zm25 25c-5.328 1.645-10.762.133-14.414-3.539-3.75-3.762-5.059-9.316-3.508-14.395l6.602-6.609c5.68 5.703 11.617 11.664 17.902 17.961l-6.582 6.582zm31.336 21.48c-2.727 2.727-4.914 4.227-9.914 4.227v5.001l-.004-.063-.309-4.938c-3.809-.004-7.836-1.547-10.523-4.246-3.75-3.762-5.059-9.316-3.508-14.395l6.57-6.574c6.156 6.172 12.582 12.609 19.32 19.352l-1.632 1.636zm127.066-75.21a14.377 14.377 0 0 1-4.246 10.227 14.283 14.283 0 0 1-10.145 4.18c-1.766 0-3.492-.313-5.145-.938-.684-.258-1.395-.305-2.098-.258l-56.809-56.805-7.07 7.07 60.406 60.406c.027.371.105.746.105 1.117a14.377 14.377 0 0 1-4.246 10.227c-3.957 3.934-10.055 5.207-15.289 3.242-.684-.258-1.395-.305-2.105-.258l-56.801-56.805-7.07 7.07 60.406 60.406c.027.371.105.746.105 1.117a14.377 14.377 0 0 1-4.246 10.227c-3.949 3.93-10.051 5.211-15.289 3.242-.684-.258-1.395-.305-2.098-.258l-56.809-56.805-7.07 7.07 60.406 60.406c.027.371.105.746.105 1.117a14.377 14.377 0 0 1-4.246 10.227c-5.457 5.438-14.965 5.434-20.422-.027-105.77-105.777-146.609-147.289-164.047-165.023-.645-.652-1.188-1.199-1.773-1.797l94.473-94.477a43933.75 43933.75 0 0 0 28.683 28.576l-20.148 20.141c-9.035 9.031-9.082 23.781-.113 32.859l.848.867a22.848 22.848 0 0 0 16.309 6.816c5.434 0 10.883-1.93 15.25-5.816l22.68-20.227c30.438 30.273 62.711 62.336 83.559 83.059l19.723 19.598a14.34 14.34 0 0 1 4.227 10.227zm-10.552-30.604l-6.355-6.316c-15.723-15.625-37.949-37.707-60.98-60.609.301.012.598.047.906.047 9.352 0 18.133-3.641 24.746-10.25l8.789-8.789-7.07-7.07-8.789 8.789c-4.723 4.719-11 7.32-17.676 7.32-6.676 0-12.953-2.602-17.676-7.32l-8.789-8.789-3.34-3.34-30.07 26.816c-5.125 4.574-12.934 4.336-17.773-.555l-.844-.867c-5.125-5.188-5.102-13.609.059-18.77l58.676-58.678c4.984-4.984 13.121-5.023 18.152-.113l4.672 4.563c8.477 8.277 17.125 16.715 18.359 17.973l7.148-6.996c-.715-.723-3.891-3.844-8.051-7.906l4.07-4.074 93.391 93.387-51.555 51.547zm63.197-54.045L306.835 192.875l28.285-28.285 102.535 102.535-28.285 28.285z"/><path d="M146.201 191.465l9.998-9.999 7.07 7.07-9.998 9.999zm179.987-2.919l7.07-7.07 10 9.998-7.071 7.07zM429.745 0h-140c-2.766 0-5 2.238-5 5v115a5 5 0 0 0 5 5h55v30a5.003 5.003 0 0 0 3.086 4.621 5.002 5.002 0 0 0 5.449-1.086L386.815 125h72.93a5 5 0 0 0 5-5V34.996c0-19.297-15.703-34.996-35-34.996zm25 115h-70a4.993 4.993 0 0 0-3.535 1.465l-26.465 26.461V120c0-1.328-.527-2.598-1.465-3.535S351.077 115 349.749 115h-55.004V10h135c13.785 0 25 11.211 25 24.996V115zm-265-115h-140c-19.297 0-35 15.699-35 34.996V120a5 5 0 0 0 5 5h72.93l33.535 33.535a5.002 5.002 0 0 0 5.449 1.086 5.004 5.004 0 0 0 3.086-4.621v-30h55a5 5 0 0 0 5-5V5c0-2.762-2.234-5-5-5zm-5 115h-55.004a5 5 0 0 0-4.996 5v22.926L98.28 116.465A4.995 4.995 0 0 0 94.745 115h-70V34.996c0-13.785 11.215-24.996 25-24.996h135v105z"/><path d="M411.21 31.465L362.245 80.43 343.28 61.465l-7.07 7.07 22.5 22.5c.977.977 2.254 1.465 3.535 1.465s2.559-.488 3.535-1.465l52.5-52.5-7.07-7.07zm-306.465-8.051l-40 34.285V100h35V70h10v30h35V57.699l-40-34.285zm30 66.586h-15V60h-30v30h-15V62.301l30-25.719 30 25.719V90z"/></svg>