<svg fill="#1a48d2" xmlns="http://www.w3.org/2000/svg" viewBox="0 0 455 455"><path d="M362.5 337.5c0-7.105-3.375-13.375-8.535-17.5 5.16-4.125 8.535-10.395 8.535-17.5 0-10.852-7.715-19.922-17.949-22.031A4.804 4.804 0 0 0 342.5 280h-90c-8.273 0-15-6.727-15-15v-37.5c0-12.406-10.094-22.5-22.5-22.5s-22.5 10.094-22.5 22.5v36.438l-14.289 32.156c-1.992 4.473-6.027 7.609-10.711 8.563V285c0-2.766-2.238-5-5-5h-60c-2.762 0-5 2.234-5 5v165c0 2.766 2.238 5 5 5h60c2.762 0 5-2.234 5-5v-20h8.332l18.668 14a5.01 5.01 0 0 0 3 1h115a4.98 4.98 0 0 0 2.234-.527l29.973-14.984c10.152-2.176 17.793-11.2 17.793-21.989 0-7.105-3.375-13.375-8.535-17.5 5.16-4.125 8.535-10.395 8.535-17.5s-3.375-13.375-8.535-17.5c5.16-4.125 8.535-10.395 8.535-17.5zM157.5 445h-50V290h50v155zm153.82-10H199.168L180.5 421a5.01 5.01 0 0 0-3-1h-10V314.781c8.648-1.051 16.25-6.535 19.848-14.625l14.719-33.125a4.984 4.984 0 0 0 .434-2.031v-37.5c0-6.891 5.609-12.5 12.5-12.5s12.499 5.609 12.499 12.5V265c0 1.711.176 3.383.504 5h-.504v70c0 8.273-6.727 15-15 15h-30v10h30c13.785 0 25-11.215 25-25v-55.125a24.766 24.766 0 0 0 13.883 5.012A22.373 22.373 0 0 0 247.5 302.5c0 7.105 3.375 13.375 8.535 17.5-5.16 4.125-8.535 10.395-8.535 17.5s3.375 13.375 8.535 17.5c-5.16 4.125-8.535 10.395-8.535 17.5s3.375 13.375 8.535 17.5c-5.16 4.125-8.535 10.395-8.535 17.5 0 12.406 10.094 22.5 22.5 22.5h51.32l-10 5zM340 420h-70c-6.895 0-12.5-5.605-12.5-12.5S263.105 395 270 395h70c6.895 0 12.5 5.605 12.5 12.5S346.895 420 340 420zm0-35h-70c-6.895 0-12.5-5.605-12.5-12.5S263.105 360 270 360h70c6.895 0 12.5 5.605 12.5 12.5S346.895 385 340 385zm0-35h-70c-6.895 0-12.5-5.605-12.5-12.5S263.105 325 270 325h70c6.895 0 12.5 5.605 12.5 12.5S346.895 350 340 350zm0-35h-70c-6.895 0-12.5-5.605-12.5-12.5S263.105 290 270 290h70c6.895 0 12.5 5.605 12.5 12.5S346.895 315 340 315z"/><path d="M127.5 300h10v10h-10zm0 20h10v25h-10zM451.035 41.465l-40-40A4.995 4.995 0 0 0 407.5 0h-150c-2.766 0-5 2.238-5 5v210c0 13.785 11.215 25 25 25h105v40a4.997 4.997 0 0 0 3.379 4.727 4.986 4.986 0 0 0 5.566-1.661l33.5-43.066H447.5c2.766 0 5-2.234 5-5V45a5 5 0 0 0-1.465-3.535zM407.5 12.07L440.43 45H407.5V12.07zm35 217.93h-20c-1.543 0-3 .711-3.945 1.934L392.5 265.43V235c0-2.766-2.234-5-5-5h-110c-8.273 0-15-6.727-15-15V10h135v40c0 2.762 2.234 5 5 5h40v175z"/><path d="M312.5 80h110v10h-110zm-30 20h140v10h-140zm0 20h140v10h-140zm90 20h50v10h-50zm-20 0h10v10h-10zm-20 0h10v10h-10zm46.465 26.465L350 195.43l-13.965-13.965-7.07 7.07L350 209.57l36.035-36.035zM177.5 0h-130c-24.813 0-45 20.188-45 45v190c0 2.766 2.238 5 5 5h17.555l33.496 43.066a4.996 4.996 0 0 0 5.574 1.661A4.999 4.999 0 0 0 67.5 280v-40h70c24.813 0 45-20.188 45-45V5a5 5 0 0 0-5-5zm-5 195c0 19.301-15.699 35-35 35h-75c-2.762 0-5 2.234-5 5v30.43l-26.051-33.496A4.995 4.995 0 0 0 27.5 230h-15V45c0-19.301 15.699-35 35-35h125v185z"/><path d="M137.5 75v-5c0-11.027-8.973-20-20-20h-20V35h-10v15h-20c-11.027 0-20 8.973-20 20v15c0 11.027 8.973 20 20 20h50c5.516 0 10 4.484 10 10v15c0 5.516-4.484 10-10 10h-50c-5.516 0-10-4.484-10-10v-20h-10v20c0 11.027 8.973 20 20 20h20v15h10v-15h20c11.027 0 20-8.973 20-20v-15c0-11.027-8.973-20-20-20h-50c-5.516 0-10-4.484-10-10V70c0-5.516 4.484-10 10-10h50c5.516 0 10 4.484 10 10v5h10zm-50 115h10v10h-10zm-20 0h10v10h-10zm40 0h10v10h-10z"/></svg>