<svg fill="#1a48d2" xmlns="http://www.w3.org/2000/svg" viewBox="0 0 445 445"><path d="M417.5 165.578v-33.723c0-16.969-14.77-31.855-31.609-31.855H372.5v10h13.391c11.512 0 21.609 10.211 21.609 21.855V165h-10v-20c0-2.762-2.234-5-5-5H370c0-15.086-5.215-28.957-13.871-40C344.219 84.812 325.75 75 305 75s-39.219 9.813-51.129 25C245.215 111.043 240 124.914 240 140h-27.5V5a5 5 0 0 0-5-5h-150a5 5 0 0 0-5 5v135h-15v-15h-10v25h360v15H33.305c-11.668 0-20.805-8.891-20.805-20.238v-12.906c0-11.848 9.527-21.855 20.805-21.855H42.5v-10h-9.195C16.605 100 2.5 114.586 2.5 131.855V400c0 24.813 20.188 45 45 45h390c2.766 0 5-2.234 5-5V196.371c0-15.273-10.781-28.019-25-30.793zM102.953 140c2.391-14.164 14.711-25 29.547-25s27.156 10.836 29.547 25h-59.094zm79.548 0h-10.31c-2.473-19.703-19.332-35-39.691-35s-37.219 15.297-39.691 35H82.5V56.164c13.723-2.07 24.293-12.551 26.395-26.164h48.77c1.871 13.949 11.535 24.117 24.836 26.156V140zm19.999 0h-10V45h-5c-11.871 0-20-7.32-20-20v-5h-70v5c0 12.074-7.789 20-20 20h-5v95h-10V10h140v130zm47.5 0c0-30.328 24.672-55 55-55s55 24.672 55 55H250zm182.5 215h-145c-13.785 0-25-11.215-25-25v-50c0-13.785 11.215-25 25-25h145v100zm.001-130l-.001 20h-145c-19.297 0-35 15.703-35 35v50c0 19.297 15.703 35 35 35h145v70h-385c-19.301 0-35-15.703-35-35V167.195C17.945 172.05 25.199 175 33.305 175h378.391c11.273 0 20.805 9.789 20.805 21.371V225z"/><path d="M372.5 300h10v10h-10zm-20 0h10v10h-10zm40 0h10v10h-10zm20 0h10v10h-10zm-190-200h15v10h-15zm85 170c-19.297 0-35 15.703-35 35s15.703 35 35 35 35-15.703 35-35-15.703-35-35-35zm0 60c-13.785 0-25-11.215-25-25s11.215-25 25-25 25 11.215 25 25-11.215 25-25 25zm35.099-206.179a39.902 39.902 0 0 0-2.958-6.329l-8.656 5.016a29.205 29.205 0 0 1 2.219 4.734 30.09 30.09 0 0 1 1.348 5.043l9.848-1.73a40.03 40.03 0 0 0-1.801-6.734zm-17.59-20.966a40.197 40.197 0 0 0-6.329-2.957 39.913 39.913 0 0 0-6.734-1.797 40.48 40.48 0 0 0-13.879 0c-2.277.395-4.551 1-6.758 1.801a40.102 40.102 0 0 0-6.316 2.953 40.348 40.348 0 0 0-5.703 4.004 39.387 39.387 0 0 0-4.922 4.93 39.34 39.34 0 0 0-4.008 5.703 40.006 40.006 0 0 0-2.957 6.32 40.35 40.35 0 0 0-1.801 6.742l9.848 1.73a30.012 30.012 0 0 1 1.352-5.051 29.203 29.203 0 0 1 2.215-4.73 29.718 29.718 0 0 1 3.008-4.285 29.276 29.276 0 0 1 3.699-3.703 29.985 29.985 0 0 1 4.281-3.008c1.5-.867 3.09-1.609 4.727-2.207a29.424 29.424 0 0 1 5.055-1.348 30.332 30.332 0 0 1 10.441 0c1.695.293 3.398.75 5.039 1.344a30.21 30.21 0 0 1 4.727 2.211 29.8 29.8 0 0 1 4.285 3.008l6.441-7.652a40.667 40.667 0 0 0-5.711-4.008z"/></svg>